# xmcd CD database file
#
# Track frame offsets:
#	150
#	20997
#	34362
#	42018
#	55176
#	69640
#	81367
#	99716
#	116055
#	133274
#	150330
#
# Disc length: 2305 seconds
#
# Revision: 2
# Processed by: cddbd v1.4b41PL1 Copyright (c) Steve Scherf et al.
# Submitted via: Feurio! 1.50.2ß - http://www.feurio.com
#
DISCID=9a08ff0b
DTITLE=Amy Grant - A Christmas Album
DYEAR=1900
DGENRE=
TTITLE0=Tennessee Christmas
TTITLE1=Hark! The Herald Angels Sing
TTITLE2=Preiset Dem Konig! (Praise The King)
TTITLE3=Emmanuel
TTITLE4=Little Town
TTITLE5=Christmas Hymn
TTITLE6=Love Has Come
TTITLE7=Sleigh Ride
TTITLE8=The Christmas Song (Chestnuts)
TTITLE9=Heirlooms
TTITLE10=A Mighty Fortress/Angels We Have Heard On High
EXTD=
EXTT0=
EXTT1=
EXTT2=
EXTT3=
EXTT4=
EXTT5=
EXTT6=
EXTT7=
EXTT8=
EXTT9=
EXTT10=
PLAYORDER=
